<?xml version="1.0" encoding="utf-8"?>
<!-- Generator: Adobe Illustrator 23.0.5, SVG Export Plug-In . SVG Version: 6.00 Build 0)  -->
<svg version="1.1" id="Layer_1" xmlns="http://www.w3.org/2000/svg" xmlns:xlink="http://www.w3.org/1999/xlink" x="0px" y="0px"
	 viewBox="0 0 200 50" style="enable-background:new 0 0 200 50;" xml:space="preserve">
<style type="text/css">
	.st0{display:none;fill:#EA2429;}
	.st1{fill:none;stroke:#092C3D;stroke-width:4.2366;stroke-miterlimit:10;}
	.st2{fill:#092C3D;}
	.st3{fill:#EA2429;}
	.st4{display:none;}
	.st5{display:inline;fill:none;stroke:#FFFFFF;stroke-width:4.2366;stroke-miterlimit:10;}
	.st6{display:inline;fill:#FFFFFF;}
	.st7{display:inline;}
	.st8{fill:#FFFFFF;}
</style>
<rect y="-75" class="st0" width="200" height="200"/>
<g>
	<g>
		<path class="st1" d="M116.9,28.5c-1.7,9.3-9.8,16.4-19.7,16.4c-11,0-20-8.9-20-20s8.9-20,20-20c8.8,0,16.3,5.7,18.9,13.6"/>
		<polygon class="st2" points="115,16 120.4,14.8 118.7,20.1 117,25.4 113.3,21.3 109.6,17.2 		"/>
		<path class="st2" d="M114.8,28.3c0.2-1,1.1-1.7,2.1-1.7c1.2,0,2.1,0.9,2.1,2.1c0,0.1,0,0.1,0,0.2"/>
		<g transform="translate(1.4065934065934016 1.4065934065934016) scale(2.81 2.81)">
			<path class="st2" d="M41.5,10.8c0.1-0.4-0.2-0.9-0.6-0.9c-0.3,0-0.5,0.2-0.6,0.5c-0.5,1.4-1.4,2.5-2.7,3.4
				c-1.7,1.1-3.8,1.3-5.6,0.6c-4.7-1.9-5.4-7.5-2.3-10.6c2-2,5.1-2.4,7.5-1.2c0.3,0.2,0.7,0.1,0.9-0.3v0c0.2-0.3,0.1-0.7-0.2-0.9
				c-3.1-1.6-7-1-9.4,1.7c-2.6,2.9-2.6,7.4,0,10.3c3,3.3,8.2,3.5,11.3,0.3C40.5,13,41.1,12,41.5,10.8z"/>
		</g>
	</g>
	<g>
		<path class="st2" d="M122,37.4V8.2h3.1v29.2H122z"/>
		<path class="st2" d="M149.1,31.2c-0.5,1.3-1.3,2.5-2.3,3.5c-1,1-2.1,1.8-3.4,2.3c-1.3,0.6-2.8,0.9-4.3,0.9s-3-0.3-4.3-0.9
			c-1.3-0.6-2.4-1.3-3.4-2.3c-1-1-1.7-2.1-2.2-3.4c-0.5-1.3-0.8-2.7-0.8-4.2s0.3-2.9,0.8-4.2s1.3-2.5,2.2-3.5c1-1,2.1-1.8,3.4-2.3
			c1.3-0.6,2.8-0.9,4.3-0.9c1.5,0,3,0.3,4.3,0.9c1.3,0.6,2.5,1.3,3.4,2.3c1,1,1.7,2.1,2.2,3.4c0.5,1.3,0.8,2.7,0.8,4.2
			S149.6,29.9,149.1,31.2z M146.2,24c-0.4-1-0.9-1.8-1.6-2.6c-0.7-0.7-1.5-1.3-2.4-1.7s-1.9-0.6-3-0.6c-1.1,0-2.1,0.2-3.1,0.6
			s-1.7,1-2.4,1.7c-0.7,0.7-1.2,1.6-1.5,2.6s-0.6,2-0.6,3.1s0.2,2.2,0.6,3.2c0.4,1,0.9,1.8,1.6,2.6c0.7,0.7,1.5,1.3,2.4,1.7
			s1.9,0.6,3,0.6c1.1,0,2.1-0.2,3.1-0.6c0.9-0.4,1.7-1,2.4-1.7c0.7-0.7,1.2-1.6,1.6-2.5c0.4-1,0.6-2,0.6-3.1
			C146.8,26,146.6,24.9,146.2,24z"/>
		<path class="st2" d="M157,19.6c-1,0.3-2,0.6-2.9,1.1l-0.9-2.5c1.1-0.5,2.3-1,3.5-1.3c1.2-0.3,2.5-0.5,4-0.5c2.8,0,5,0.7,6.5,2.1
			s2.3,3.5,2.3,6.2v12.6h-3v-3.1c-0.7,0.9-1.7,1.8-2.9,2.5c-1.2,0.7-2.7,1.1-4.6,1.1c-1,0-1.9-0.1-2.8-0.4c-0.9-0.3-1.7-0.7-2.5-1.2
			c-0.7-0.5-1.3-1.2-1.8-2c-0.4-0.8-0.7-1.7-0.7-2.8c0-1.1,0.2-2.1,0.6-2.9s1-1.5,1.8-2.1c0.8-0.6,1.7-1,2.8-1.3s2.3-0.4,3.6-0.4
			c1.3,0,2.5,0.1,3.5,0.2c1,0.2,1.9,0.4,2.9,0.6v-0.7c0-1.9-0.5-3.3-1.6-4.2c-1.1-0.9-2.6-1.4-4.5-1.4C159.1,19.2,158,19.3,157,19.6
			z M156,28.1c-1,0.8-1.6,1.8-1.6,3.2c0,0.7,0.1,1.3,0.4,1.8c0.3,0.5,0.7,0.9,1.1,1.3c0.5,0.4,1,0.6,1.7,0.8c0.6,0.2,1.3,0.3,2,0.3
			c1,0,1.9-0.1,2.7-0.4c0.8-0.3,1.6-0.7,2.2-1.2c0.6-0.5,1.1-1.1,1.5-1.8c0.4-0.7,0.5-1.4,0.5-2.3v-2c-0.8-0.2-1.7-0.4-2.7-0.6
			c-1-0.2-2.1-0.3-3.4-0.3C158.5,26.9,157,27.3,156,28.1z"/>
		<path class="st2" d="M176.4,37.4h-3.1V16.7h3.1v3.6c0.7-1.1,1.6-2.1,2.7-2.9c1.1-0.8,2.6-1.2,4.4-1.2c1.3,0,2.4,0.2,3.3,0.6
			c1,0.4,1.8,1,2.5,1.7c0.7,0.7,1.2,1.6,1.6,2.6c0.4,1,0.5,2.1,0.5,3.4v12.8h-3.1V25.3c0-1.9-0.5-3.4-1.5-4.6
			c-1-1.1-2.4-1.7-4.2-1.7c-0.9,0-1.7,0.2-2.5,0.5c-0.8,0.3-1.4,0.7-2,1.3c-0.6,0.6-1,1.3-1.3,2.1c-0.3,0.8-0.5,1.7-0.5,2.6V37.4z"
			/>
	</g>
	<g>
		<path class="st3" d="M29.6,37.4l-2.6-6.3H15.2l-2.6,6.3H6.4l12-28.2h5.7l12,28.2H29.6z M21.2,16.6l-3.7,9.1h7.4L21.2,16.6z"/>
		<path class="st3" d="M52.2,34c-0.4,0.9-1,1.6-1.7,2.1c-0.7,0.6-1.6,1-2.6,1.3c-1,0.3-2.1,0.4-3.2,0.4c-1.5,0-3.1-0.3-4.7-0.8
			c-1.6-0.5-3.1-1.3-4.5-2.5l2.6-4c1.2,0.9,2.3,1.5,3.5,1.9c1.2,0.4,2.2,0.6,3.3,0.6c0.9,0,1.5-0.1,1.9-0.4c0.4-0.3,0.6-0.7,0.6-1.2
			v-0.1c0-0.3-0.1-0.6-0.4-0.8c-0.2-0.2-0.6-0.4-1-0.6c-0.4-0.2-0.9-0.3-1.4-0.5c-0.5-0.2-1.1-0.3-1.7-0.5c-0.7-0.2-1.5-0.5-2.3-0.8
			c-0.8-0.3-1.4-0.7-2.1-1.2c-0.6-0.5-1.1-1.1-1.5-1.8c-0.4-0.7-0.6-1.6-0.6-2.6v-0.1c0-1.1,0.2-2.1,0.6-2.9c0.4-0.8,1-1.6,1.7-2.1
			c0.7-0.6,1.5-1,2.5-1.3c0.9-0.3,2-0.4,3.1-0.4c1.4,0,2.7,0.2,4.1,0.7s2.7,1,3.9,1.8L50,22.3c-1.1-0.6-2.1-1.1-3.1-1.5
			c-1-0.4-1.9-0.5-2.7-0.5c-0.7,0-1.3,0.1-1.7,0.4C42.2,21,42,21.4,42,21.8v0.1c0,0.3,0.1,0.6,0.4,0.8c0.2,0.2,0.6,0.4,1,0.6
			c0.4,0.2,0.9,0.4,1.4,0.6c0.5,0.2,1.1,0.4,1.7,0.6c0.7,0.2,1.5,0.5,2.3,0.9c0.8,0.3,1.5,0.7,2.1,1.2c0.6,0.5,1.1,1.1,1.5,1.8
			c0.4,0.7,0.6,1.5,0.6,2.5v0.1C52.8,32.1,52.6,33.1,52.2,34z"/>
		<path class="st3" d="M68.4,37.4l-5.6-8.8l-2.1,2.2v6.5h-6.1V8.2h6.1v15.6l7.1-7.8H75l-8.2,8.4l8.4,13H68.4z"/>
	</g>
	<g>
		<path class="st3" d="M104.7,26.5h2.8c0.3,0,0.5,0.1,0.6,0.3c0.2,0.2,0.3,0.4,0.3,0.6v4.8c0,0.2-0.1,0.4-0.3,0.6
			c-0.2,0.2-0.4,0.3-0.6,0.3h-2.8v2.7c0,0.2-0.1,0.4-0.3,0.6c-0.2,0.2-0.4,0.3-0.6,0.3h-6.4c-0.2,0-0.4-0.1-0.6-0.3
			c-0.2-0.2-0.3-0.4-0.3-0.6V33H86.2c-0.2,0-0.4-0.1-0.6-0.3c-0.2-0.2-0.3-0.4-0.3-0.6v-4.7c0-0.4,0.1-0.7,0.4-1l9.7-11.7
			c0.3-0.4,0.7-0.5,1.2-0.5h7.3c0.2,0,0.4,0.1,0.6,0.3c0.2,0.2,0.3,0.4,0.3,0.6V26.5z M96.8,26.9v-4.5l-3.7,4.5H96.8z"/>
	</g>
</g>
<g class="st4">
	<path class="st5" d="M116.9,28.5c-1.7,9.3-9.8,16.4-19.7,16.4c-11,0-20-8.9-20-20s8.9-20,20-20c8.8,0,16.3,5.7,18.9,13.6"/>
	<polygon class="st6" points="115,16.1 120.4,14.9 118.7,20.2 117,25.5 113.3,21.3 109.6,17.2 	"/>
	<path class="st6" d="M114.8,28.4c0.2-1,1.1-1.7,2.1-1.7c1.2,0,2.1,0.9,2.1,2.1c0,0.1,0,0.1,0,0.2"/>
	<g transform="translate(1.4065934065934016 1.4065934065934016) scale(2.81 2.81)" class="st7">
		<path class="st8" d="M41.5,10.9c0.1-0.4-0.2-0.9-0.6-0.9c-0.3,0-0.5,0.2-0.6,0.5c-0.5,1.4-1.4,2.5-2.7,3.4
			c-1.7,1.1-3.8,1.3-5.6,0.6c-4.7-1.9-5.4-7.5-2.3-10.6c2-2,5.1-2.4,7.5-1.2c0.3,0.2,0.7,0.1,0.9-0.3v0c0.2-0.3,0.1-0.7-0.2-0.9
			c-3.1-1.6-7-1-9.4,1.7c-2.6,2.9-2.6,7.4,0,10.3c3,3.3,8.2,3.5,11.3,0.3C40.5,13,41.1,12,41.5,10.9z"/>
	</g>
	<g class="st7">
		<path class="st8" d="M122,37.5V8.3h3.1v29.2H122z"/>
		<path class="st8" d="M149.1,31.3c-0.5,1.3-1.3,2.5-2.3,3.5c-1,1-2.1,1.8-3.4,2.3c-1.3,0.6-2.8,0.9-4.3,0.9s-3-0.3-4.3-0.9
			c-1.3-0.6-2.4-1.3-3.4-2.3c-1-1-1.7-2.1-2.2-3.4c-0.5-1.3-0.8-2.7-0.8-4.2s0.3-2.9,0.8-4.2s1.3-2.5,2.2-3.5c1-1,2.1-1.8,3.4-2.3
			c1.3-0.6,2.8-0.9,4.3-0.9c1.5,0,3,0.3,4.3,0.9c1.3,0.6,2.5,1.3,3.4,2.3c1,1,1.7,2.1,2.2,3.4c0.5,1.3,0.8,2.7,0.8,4.2
			S149.6,30,149.1,31.3z M146.2,24c-0.4-1-0.9-1.8-1.6-2.6c-0.7-0.7-1.5-1.3-2.4-1.7s-1.9-0.6-3-0.6c-1.1,0-2.1,0.2-3.1,0.6
			s-1.7,1-2.4,1.7c-0.7,0.7-1.2,1.6-1.5,2.6s-0.6,2-0.6,3.1s0.2,2.2,0.6,3.2c0.4,1,0.9,1.8,1.6,2.6c0.7,0.7,1.5,1.3,2.4,1.7
			s1.9,0.6,3,0.6c1.1,0,2.1-0.2,3.1-0.6c0.9-0.4,1.7-1,2.4-1.7c0.7-0.7,1.2-1.6,1.6-2.5c0.4-1,0.6-2,0.6-3.1S146.6,25,146.2,24z"/>
		<path class="st8" d="M157,19.6c-1,0.3-2,0.6-2.9,1.1l-0.9-2.5c1.1-0.5,2.3-1,3.5-1.3c1.2-0.3,2.5-0.5,4-0.5c2.8,0,5,0.7,6.5,2.1
			s2.3,3.5,2.3,6.2v12.6h-3v-3.1c-0.7,0.9-1.7,1.8-2.9,2.5c-1.2,0.7-2.7,1.1-4.6,1.1c-1,0-1.9-0.1-2.8-0.4c-0.9-0.3-1.7-0.7-2.5-1.2
			c-0.7-0.5-1.3-1.2-1.8-2c-0.4-0.8-0.7-1.7-0.7-2.8c0-1.1,0.2-2.1,0.6-2.9s1-1.5,1.8-2.1c0.8-0.6,1.7-1,2.8-1.3s2.3-0.4,3.6-0.4
			c1.3,0,2.5,0.1,3.5,0.2c1,0.2,1.9,0.4,2.9,0.6v-0.7c0-1.9-0.5-3.3-1.6-4.2c-1.1-0.9-2.6-1.4-4.5-1.4C159.1,19.2,158,19.4,157,19.6
			z M156,28.2c-1,0.8-1.6,1.8-1.6,3.2c0,0.7,0.1,1.3,0.4,1.8c0.3,0.5,0.7,0.9,1.1,1.3c0.5,0.4,1,0.6,1.7,0.8c0.6,0.2,1.3,0.3,2,0.3
			c1,0,1.9-0.1,2.7-0.4c0.8-0.3,1.6-0.7,2.2-1.2c0.6-0.5,1.1-1.1,1.5-1.8c0.4-0.7,0.5-1.4,0.5-2.3v-2c-0.8-0.2-1.7-0.4-2.7-0.6
			c-1-0.2-2.1-0.3-3.4-0.3C158.5,27,157,27.4,156,28.2z"/>
		<path class="st8" d="M176.4,37.5h-3.1V16.8h3.1v3.6c0.7-1.1,1.6-2.1,2.7-2.9c1.1-0.8,2.6-1.2,4.4-1.2c1.3,0,2.4,0.2,3.3,0.6
			c1,0.4,1.8,1,2.5,1.7c0.7,0.7,1.2,1.6,1.6,2.6c0.4,1,0.5,2.1,0.5,3.4v12.8h-3.1V25.4c0-1.9-0.5-3.4-1.5-4.6
			c-1-1.1-2.4-1.7-4.2-1.7c-0.9,0-1.7,0.2-2.5,0.5c-0.8,0.3-1.4,0.7-2,1.3c-0.6,0.6-1,1.3-1.3,2.1c-0.3,0.8-0.5,1.7-0.5,2.6V37.5z"
			/>
	</g>
	<g class="st7">
		<path class="st8" d="M29.6,37.5l-2.6-6.3H15.2l-2.6,6.3H6.4l12-28.2h5.7l12,28.2H29.6z M21.2,16.7l-3.7,9.1h7.4L21.2,16.7z"/>
		<path class="st8" d="M52.2,34c-0.4,0.9-1,1.6-1.7,2.1c-0.7,0.6-1.6,1-2.6,1.3c-1,0.3-2.1,0.4-3.2,0.4c-1.5,0-3.1-0.3-4.7-0.8
			c-1.6-0.5-3.1-1.3-4.5-2.5l2.6-4c1.2,0.9,2.3,1.5,3.5,1.9c1.2,0.4,2.2,0.6,3.3,0.6c0.9,0,1.5-0.1,1.9-0.4c0.4-0.3,0.6-0.7,0.6-1.2
			v-0.1c0-0.3-0.1-0.6-0.4-0.8c-0.2-0.2-0.6-0.4-1-0.6c-0.4-0.2-0.9-0.3-1.4-0.5c-0.5-0.2-1.1-0.3-1.7-0.5c-0.7-0.2-1.5-0.5-2.3-0.8
			c-0.8-0.3-1.4-0.7-2.1-1.2c-0.6-0.5-1.1-1.1-1.5-1.8c-0.4-0.7-0.6-1.6-0.6-2.6v-0.1c0-1.1,0.2-2.1,0.6-2.9c0.4-0.8,1-1.6,1.7-2.1
			c0.7-0.6,1.5-1,2.5-1.3c0.9-0.3,2-0.4,3.1-0.4c1.4,0,2.7,0.2,4.1,0.7s2.7,1,3.9,1.8L50,22.4c-1.1-0.6-2.1-1.1-3.1-1.5
			c-1-0.4-1.9-0.5-2.7-0.5c-0.7,0-1.3,0.1-1.7,0.4c-0.4,0.3-0.6,0.6-0.6,1.1V22c0,0.3,0.1,0.6,0.4,0.8c0.2,0.2,0.6,0.4,1,0.6
			c0.4,0.2,0.9,0.4,1.4,0.6c0.5,0.2,1.1,0.4,1.7,0.6c0.7,0.2,1.5,0.5,2.3,0.9c0.8,0.3,1.5,0.7,2.1,1.2c0.6,0.5,1.1,1.1,1.5,1.8
			c0.4,0.7,0.6,1.5,0.6,2.5V31C52.8,32.2,52.6,33.2,52.2,34z"/>
		<path class="st8" d="M68.4,37.5l-5.6-8.8L60.6,31v6.5h-6.1V8.3h6.1v15.6l7.1-7.8H75l-8.2,8.4l8.4,13H68.4z"/>
	</g>
	<g class="st7">
		<path class="st8" d="M104.7,26.6h2.8c0.3,0,0.5,0.1,0.6,0.3c0.2,0.2,0.3,0.4,0.3,0.6v4.8c0,0.2-0.1,0.4-0.3,0.6
			c-0.2,0.2-0.4,0.3-0.6,0.3h-2.8v2.7c0,0.2-0.1,0.4-0.3,0.6c-0.2,0.2-0.4,0.3-0.6,0.3h-6.4c-0.2,0-0.4-0.1-0.6-0.3
			c-0.2-0.2-0.3-0.4-0.3-0.6v-2.7H86.2c-0.2,0-0.4-0.1-0.6-0.3c-0.2-0.2-0.3-0.4-0.3-0.6v-4.7c0-0.4,0.1-0.7,0.4-1l9.7-11.7
			c0.3-0.4,0.7-0.5,1.2-0.5h7.3c0.2,0,0.4,0.1,0.6,0.3c0.2,0.2,0.3,0.4,0.3,0.6V26.6z M96.8,26.9v-4.5l-3.7,4.5H96.8z"/>
	</g>
</g>
</svg>
