<?xml version="1.0" encoding="utf-8"?>
<!-- Generator: Adobe Illustrator 23.0.5, SVG Export Plug-In . SVG Version: 6.00 Build 0)  -->
<svg version="1.1" id="Layer_1" xmlns="http://www.w3.org/2000/svg" xmlns:xlink="http://www.w3.org/1999/xlink" x="0px" y="0px"
	 viewBox="0 0 200 200" style="enable-background:new 0 0 200 200;" xml:space="preserve">
<style type="text/css">
	.st0{display:none;fill:#EA2429;}
	.st1{fill:none;stroke:#092C3D;stroke-width:18.2219;stroke-miterlimit:10;}
	.st2{fill:#092C3D;}
	.st3{fill:#EA2429;}
	.st4{display:none;}
	.st5{display:inline;}
	.st6{fill:none;stroke:#092C3D;stroke-width:4.2366;stroke-miterlimit:10;}
	.st7{display:inline;fill:none;stroke:#FFFFFF;stroke-width:4.2366;stroke-miterlimit:10;}
	.st8{display:inline;fill:#FFFFFF;}
	.st9{fill:#FFFFFF;}
</style>
<rect y="0.1" class="st0" width="200" height="200"/>
<g>
	<g>
		<path class="st1" d="M181.5,115.2c-7.2,40.2-42.3,70.7-84.5,70.7c-47.4,0-85.9-38.5-85.9-85.9S49.5,14.1,97,14.1
			c37.9,0,70.1,24.6,81.5,58.7"/>
		<polygon class="st2" points="173.2,61.6 196.5,56.6 189.2,79.3 181.9,102 165.9,84.3 149.9,66.6 		"/>
		<path class="st2" d="M172.4,114.4c0.8-4.2,4.5-7.3,9-7.3c5,0,9.1,4.1,9.1,9.1c0,0.3,0,0.5,0,0.8"/>
		<g transform="translate(1.4065934065934016 1.4065934065934016) scale(2.81 2.81)">
			<path class="st2" d="M65.7,45.7c0.6-1.8-0.7-3.8-2.8-3.8c-1.3,0-2.3,0.9-2.7,2.1c-2,5.9-6,10.9-11.6,14.6
				c-7.2,4.7-16.3,5.8-24.2,2.5C4.4,52.9,1.1,29,14.5,15.5c8.7-8.7,21.7-10.4,32.1-5.1c1.4,0.7,3.2,0.3,4-1.1l0,0
				C51.4,8,51,6.3,49.6,5.5C36.4-1.4,19.6,1.1,9,13C-2.1,25.5-2,44.8,9.1,57.3C22,71.7,44.2,72.2,57.7,58.7
				C61.3,55,64,50.6,65.7,45.7z"/>
		</g>
	</g>
	<g>
		<path class="st3" d="M129.1,106.9h12c1.1,0,2,0.4,2.8,1.1c0.7,0.7,1.1,1.6,1.1,2.6v20.5c0,1-0.4,1.9-1.1,2.6
			c-0.7,0.7-1.6,1.1-2.6,1.1h-12.1v11.7c0,1-0.4,1.9-1.1,2.6c-0.7,0.7-1.6,1.1-2.6,1.1H97.7c-1,0-1.9-0.4-2.6-1.1
			c-0.7-0.7-1.1-1.6-1.1-2.6v-11.7H49.4c-1,0-1.9-0.4-2.6-1.1c-0.7-0.7-1.1-1.6-1.1-2.6v-20.4c0-1.6,0.5-3,1.5-4.3l41.7-50.2
			c1.3-1.6,3-2.3,5.1-2.3h31.4c1,0,1.9,0.4,2.6,1.1c0.7,0.7,1.1,1.6,1.1,2.6V106.9z M95,108.4V89l-15.8,19.4H95z"/>
	</g>
</g>
<g class="st4">
	<g class="st5">
		<path class="st6" d="M116.9,103.6c-1.7,9.3-9.8,16.4-19.7,16.4c-11,0-20-8.9-20-20s8.9-20,20-20c8.8,0,16.3,5.7,18.9,13.6"/>
		<polygon class="st2" points="115,91.1 120.4,90 118.7,95.2 117,100.5 113.3,96.4 109.6,92.3 		"/>
		<path class="st2" d="M114.8,103.4c0.2-1,1.1-1.7,2.1-1.7c1.2,0,2.1,0.9,2.1,2.1c0,0.1,0,0.1,0,0.2"/>
		<g transform="translate(1.4065934065934016 1.4065934065934016) scale(2.81 2.81)">
			<path class="st2" d="M41.5,37.6c0.1-0.4-0.2-0.9-0.6-0.9c-0.3,0-0.5,0.2-0.6,0.5c-0.5,1.4-1.4,2.5-2.7,3.4
				c-1.7,1.1-3.8,1.3-5.6,0.6c-4.7-1.9-5.4-7.5-2.3-10.6c2-2,5.1-2.4,7.5-1.2c0.3,0.2,0.7,0.1,0.9-0.3v0c0.2-0.3,0.1-0.7-0.2-0.9
				c-3.1-1.6-7-1-9.4,1.7c-2.6,2.9-2.6,7.4,0,10.3c3,3.3,8.2,3.5,11.3,0.3C40.5,39.7,41.1,38.7,41.5,37.6z"/>
		</g>
	</g>
	<g class="st5">
		<path class="st2" d="M122,112.5V83.3h3.1v29.2H122z"/>
		<path class="st2" d="M149.1,106.3c-0.5,1.3-1.3,2.5-2.3,3.5c-1,1-2.1,1.8-3.4,2.3c-1.3,0.6-2.8,0.9-4.3,0.9s-3-0.3-4.3-0.9
			c-1.3-0.6-2.4-1.3-3.4-2.3c-1-1-1.7-2.1-2.2-3.4c-0.5-1.3-0.8-2.7-0.8-4.2s0.3-2.9,0.8-4.2s1.3-2.5,2.2-3.5c1-1,2.1-1.8,3.4-2.3
			c1.3-0.6,2.8-0.9,4.3-0.9c1.5,0,3,0.3,4.3,0.9c1.3,0.6,2.5,1.3,3.4,2.3c1,1,1.7,2.1,2.2,3.4c0.5,1.3,0.8,2.7,0.8,4.2
			S149.6,105,149.1,106.3z M146.2,99.1c-0.4-1-0.9-1.8-1.6-2.6c-0.7-0.7-1.5-1.3-2.4-1.7s-1.9-0.6-3-0.6c-1.1,0-2.1,0.2-3.1,0.6
			s-1.7,1-2.4,1.7c-0.7,0.7-1.2,1.6-1.5,2.6s-0.6,2-0.6,3.1s0.2,2.2,0.6,3.2c0.4,1,0.9,1.8,1.6,2.6c0.7,0.7,1.5,1.3,2.4,1.7
			s1.9,0.6,3,0.6c1.1,0,2.1-0.2,3.1-0.6c0.9-0.4,1.7-1,2.4-1.7c0.7-0.7,1.2-1.6,1.6-2.5c0.4-1,0.6-2,0.6-3.1S146.6,100.1,146.2,99.1
			z"/>
		<path class="st2" d="M157,94.7c-1,0.3-2,0.6-2.9,1.1l-0.9-2.5c1.1-0.5,2.3-1,3.5-1.3c1.2-0.3,2.5-0.5,4-0.5c2.8,0,5,0.7,6.5,2.1
			s2.3,3.5,2.3,6.2v12.6h-3v-3.1c-0.7,0.9-1.7,1.8-2.9,2.5c-1.2,0.7-2.7,1.1-4.6,1.1c-1,0-1.9-0.1-2.8-0.4c-0.9-0.3-1.7-0.7-2.5-1.2
			c-0.7-0.5-1.3-1.2-1.8-2c-0.4-0.8-0.7-1.7-0.7-2.8c0-1.1,0.2-2.1,0.6-2.9s1-1.5,1.8-2.1c0.8-0.6,1.7-1,2.8-1.3s2.3-0.4,3.6-0.4
			c1.3,0,2.5,0.1,3.5,0.2c1,0.2,1.9,0.4,2.9,0.6v-0.7c0-1.9-0.5-3.3-1.6-4.2c-1.1-0.9-2.6-1.4-4.5-1.4C159.1,94.3,158,94.4,157,94.7
			z M156,103.2c-1,0.8-1.6,1.8-1.6,3.2c0,0.7,0.1,1.3,0.4,1.8c0.3,0.5,0.7,0.9,1.1,1.3c0.5,0.4,1,0.6,1.7,0.8c0.6,0.2,1.3,0.3,2,0.3
			c1,0,1.9-0.1,2.7-0.4c0.8-0.3,1.6-0.7,2.2-1.2c0.6-0.5,1.1-1.1,1.5-1.8c0.4-0.7,0.5-1.4,0.5-2.3v-2c-0.8-0.2-1.7-0.4-2.7-0.6
			c-1-0.2-2.1-0.3-3.4-0.3C158.5,102,157,102.4,156,103.2z"/>
		<path class="st2" d="M176.4,112.5h-3.1V91.8h3.1v3.6c0.7-1.1,1.6-2.1,2.7-2.9c1.1-0.8,2.6-1.2,4.4-1.2c1.3,0,2.4,0.2,3.3,0.6
			c1,0.4,1.8,1,2.5,1.7c0.7,0.7,1.2,1.6,1.6,2.6c0.4,1,0.5,2.1,0.5,3.4v12.8h-3.1v-12.1c0-1.9-0.5-3.4-1.5-4.6
			c-1-1.1-2.4-1.7-4.2-1.7c-0.9,0-1.7,0.2-2.5,0.5c-0.8,0.3-1.4,0.7-2,1.3c-0.6,0.6-1,1.3-1.3,2.1c-0.3,0.8-0.5,1.7-0.5,2.6V112.5z"
			/>
	</g>
	<g class="st5">
		<path class="st3" d="M29.6,112.5l-2.6-6.3H15.2l-2.6,6.3H6.4l12-28.2h5.7l12,28.2H29.6z M21.2,91.7l-3.7,9.1h7.4L21.2,91.7z"/>
		<path class="st3" d="M52.2,109.1c-0.4,0.9-1,1.6-1.7,2.1c-0.7,0.6-1.6,1-2.6,1.3c-1,0.3-2.1,0.4-3.2,0.4c-1.5,0-3.1-0.3-4.7-0.8
			c-1.6-0.5-3.1-1.3-4.5-2.5l2.6-4c1.2,0.9,2.3,1.5,3.5,1.9c1.2,0.4,2.2,0.6,3.3,0.6c0.9,0,1.5-0.1,1.9-0.4c0.4-0.3,0.6-0.7,0.6-1.2
			v-0.1c0-0.3-0.1-0.6-0.4-0.8c-0.2-0.2-0.6-0.4-1-0.6c-0.4-0.2-0.9-0.3-1.4-0.5c-0.5-0.2-1.1-0.3-1.7-0.5c-0.7-0.2-1.5-0.5-2.3-0.8
			c-0.8-0.3-1.4-0.7-2.1-1.2c-0.6-0.5-1.1-1.1-1.5-1.8c-0.4-0.7-0.6-1.6-0.6-2.6v-0.1c0-1.1,0.2-2.1,0.6-2.9c0.4-0.8,1-1.6,1.7-2.1
			c0.7-0.6,1.5-1,2.5-1.3c0.9-0.3,2-0.4,3.1-0.4c1.4,0,2.7,0.2,4.1,0.7s2.7,1,3.9,1.8L50,97.4c-1.1-0.6-2.1-1.1-3.1-1.5
			c-1-0.4-1.9-0.5-2.7-0.5c-0.7,0-1.3,0.1-1.7,0.4c-0.4,0.3-0.6,0.6-0.6,1.1V97c0,0.3,0.1,0.6,0.4,0.8c0.2,0.2,0.6,0.4,1,0.6
			c0.4,0.2,0.9,0.4,1.4,0.6c0.5,0.2,1.1,0.4,1.7,0.6c0.7,0.2,1.5,0.5,2.3,0.9c0.8,0.3,1.5,0.7,2.1,1.2c0.6,0.5,1.1,1.1,1.5,1.8
			c0.4,0.7,0.6,1.5,0.6,2.5v0.1C52.8,107.2,52.6,108.2,52.2,109.1z"/>
		<path class="st3" d="M68.4,112.5l-5.6-8.8l-2.1,2.2v6.5h-6.1V83.3h6.1v15.6l7.1-7.8H75l-8.2,8.4l8.4,13H68.4z"/>
	</g>
	<g class="st5">
		<path class="st3" d="M104.7,101.7h2.8c0.3,0,0.5,0.1,0.6,0.3c0.2,0.2,0.3,0.4,0.3,0.6v4.8c0,0.2-0.1,0.4-0.3,0.6
			c-0.2,0.2-0.4,0.3-0.6,0.3h-2.8v2.7c0,0.2-0.1,0.4-0.3,0.6c-0.2,0.2-0.4,0.3-0.6,0.3h-6.4c-0.2,0-0.4-0.1-0.6-0.3
			c-0.2-0.2-0.3-0.4-0.3-0.6v-2.7H86.2c-0.2,0-0.4-0.1-0.6-0.3c-0.2-0.2-0.3-0.4-0.3-0.6v-4.7c0-0.4,0.1-0.7,0.4-1l9.7-11.7
			c0.3-0.4,0.7-0.5,1.2-0.5h7.3c0.2,0,0.4,0.1,0.6,0.3c0.2,0.2,0.3,0.4,0.3,0.6V101.7z M96.8,102v-4.5l-3.7,4.5H96.8z"/>
	</g>
</g>
<g class="st4">
	<path class="st7" d="M116.9,103.7c-1.7,9.3-9.8,16.4-19.7,16.4c-11,0-20-8.9-20-20s8.9-20,20-20c8.8,0,16.3,5.7,18.9,13.6"/>
	<polygon class="st8" points="115,91.2 120.4,90 118.7,95.3 117,100.6 113.3,96.5 109.6,92.4 	"/>
	<path class="st8" d="M114.8,103.5c0.2-1,1.1-1.7,2.1-1.7c1.2,0,2.1,0.9,2.1,2.1c0,0.1,0,0.1,0,0.2"/>
	<g transform="translate(1.4065934065934016 1.4065934065934016) scale(2.81 2.81)" class="st5">
		<path class="st9" d="M41.5,37.6c0.1-0.4-0.2-0.9-0.6-0.9c-0.3,0-0.5,0.2-0.6,0.5c-0.5,1.4-1.4,2.5-2.7,3.4
			c-1.7,1.1-3.8,1.3-5.6,0.6c-4.7-1.9-5.4-7.5-2.3-10.6c2-2,5.1-2.4,7.5-1.2c0.3,0.2,0.7,0.1,0.9-0.3v0c0.2-0.3,0.1-0.7-0.2-0.9
			c-3.1-1.6-7-1-9.4,1.7c-2.6,2.9-2.6,7.4,0,10.3c3,3.3,8.2,3.5,11.3,0.3C40.5,39.8,41.1,38.7,41.5,37.6z"/>
	</g>
	<g class="st5">
		<path class="st9" d="M122,112.6V83.4h3.1v29.2H122z"/>
		<path class="st9" d="M149.1,106.4c-0.5,1.3-1.3,2.5-2.3,3.5c-1,1-2.1,1.8-3.4,2.3c-1.3,0.6-2.8,0.9-4.3,0.9s-3-0.3-4.3-0.9
			c-1.3-0.6-2.4-1.3-3.4-2.3c-1-1-1.7-2.1-2.2-3.4c-0.5-1.3-0.8-2.7-0.8-4.2c0-1.5,0.3-2.9,0.8-4.2s1.3-2.5,2.2-3.5
			c1-1,2.1-1.8,3.4-2.3c1.3-0.6,2.8-0.9,4.3-0.9c1.5,0,3,0.3,4.3,0.9c1.3,0.6,2.5,1.3,3.4,2.3c1,1,1.7,2.1,2.2,3.4
			c0.5,1.3,0.8,2.7,0.8,4.2C149.9,103.7,149.6,105.1,149.1,106.4z M146.2,99.1c-0.4-1-0.9-1.8-1.6-2.6c-0.7-0.7-1.5-1.3-2.4-1.7
			s-1.9-0.6-3-0.6c-1.1,0-2.1,0.2-3.1,0.6s-1.7,1-2.4,1.7c-0.7,0.7-1.2,1.6-1.5,2.6s-0.6,2-0.6,3.1s0.2,2.2,0.6,3.2
			c0.4,1,0.9,1.8,1.6,2.6c0.7,0.7,1.5,1.3,2.4,1.7s1.9,0.6,3,0.6c1.1,0,2.1-0.2,3.1-0.6c0.9-0.4,1.7-1,2.4-1.7
			c0.7-0.7,1.2-1.6,1.6-2.5c0.4-1,0.6-2,0.6-3.1S146.6,100.1,146.2,99.1z"/>
		<path class="st9" d="M157,94.8c-1,0.3-2,0.6-2.9,1.1l-0.9-2.5c1.1-0.5,2.3-1,3.5-1.3c1.2-0.3,2.5-0.5,4-0.5c2.8,0,5,0.7,6.5,2.1
			s2.3,3.5,2.3,6.2v12.6h-3v-3.1c-0.7,0.9-1.7,1.8-2.9,2.5c-1.2,0.7-2.7,1.1-4.6,1.1c-1,0-1.9-0.1-2.8-0.4c-0.9-0.3-1.7-0.7-2.5-1.2
			c-0.7-0.5-1.3-1.2-1.8-2c-0.4-0.8-0.7-1.7-0.7-2.8c0-1.1,0.2-2.1,0.6-2.9s1-1.5,1.8-2.1c0.8-0.6,1.7-1,2.8-1.3s2.3-0.4,3.6-0.4
			c1.3,0,2.5,0.1,3.5,0.2c1,0.2,1.9,0.4,2.9,0.6V100c0-1.9-0.5-3.3-1.6-4.2c-1.1-0.9-2.6-1.4-4.5-1.4C159.1,94.4,158,94.5,157,94.8z
			 M156,103.3c-1,0.8-1.6,1.8-1.6,3.2c0,0.7,0.1,1.3,0.4,1.8c0.3,0.5,0.7,0.9,1.1,1.3c0.5,0.4,1,0.6,1.7,0.8c0.6,0.2,1.3,0.3,2,0.3
			c1,0,1.9-0.1,2.7-0.4c0.8-0.3,1.6-0.7,2.2-1.2c0.6-0.5,1.1-1.1,1.5-1.8c0.4-0.7,0.5-1.4,0.5-2.3v-2c-0.8-0.2-1.7-0.4-2.7-0.6
			c-1-0.2-2.1-0.3-3.4-0.3C158.5,102.1,157,102.5,156,103.3z"/>
		<path class="st9" d="M176.4,112.6h-3.1V91.9h3.1v3.6c0.7-1.1,1.6-2.1,2.7-2.9c1.1-0.8,2.6-1.2,4.4-1.2c1.3,0,2.4,0.2,3.3,0.6
			c1,0.4,1.8,1,2.5,1.7c0.7,0.7,1.2,1.6,1.6,2.6c0.4,1,0.5,2.1,0.5,3.4v12.8h-3.1v-12.1c0-1.9-0.5-3.4-1.5-4.6
			c-1-1.1-2.4-1.7-4.2-1.7c-0.9,0-1.7,0.2-2.5,0.5c-0.8,0.3-1.4,0.7-2,1.3c-0.6,0.6-1,1.3-1.3,2.1c-0.3,0.8-0.5,1.7-0.5,2.6V112.6z"
			/>
	</g>
	<g class="st5">
		<path class="st9" d="M29.6,112.6l-2.6-6.3H15.2l-2.6,6.3H6.4l12-28.2h5.7l12,28.2H29.6z M21.2,91.8l-3.7,9.1h7.4L21.2,91.8z"/>
		<path class="st9" d="M52.2,109.2c-0.4,0.9-1,1.6-1.7,2.1c-0.7,0.6-1.6,1-2.6,1.3c-1,0.3-2.1,0.4-3.2,0.4c-1.5,0-3.1-0.3-4.7-0.8
			c-1.6-0.5-3.1-1.3-4.5-2.5l2.6-4c1.2,0.9,2.3,1.5,3.5,1.9c1.2,0.4,2.2,0.6,3.3,0.6c0.9,0,1.5-0.1,1.9-0.4c0.4-0.3,0.6-0.7,0.6-1.2
			v-0.1c0-0.3-0.1-0.6-0.4-0.8c-0.2-0.2-0.6-0.4-1-0.6c-0.4-0.2-0.9-0.3-1.4-0.5c-0.5-0.2-1.1-0.3-1.7-0.5c-0.7-0.2-1.5-0.5-2.3-0.8
			c-0.8-0.3-1.4-0.7-2.1-1.2c-0.6-0.5-1.1-1.1-1.5-1.8c-0.4-0.7-0.6-1.6-0.6-2.6v-0.1c0-1.1,0.2-2.1,0.6-2.9c0.4-0.8,1-1.6,1.7-2.1
			c0.7-0.6,1.5-1,2.5-1.3c0.9-0.3,2-0.4,3.1-0.4c1.4,0,2.7,0.2,4.1,0.7s2.7,1,3.9,1.8L50,97.5c-1.1-0.6-2.1-1.1-3.1-1.5
			c-1-0.4-1.9-0.5-2.7-0.5c-0.7,0-1.3,0.1-1.7,0.4C42.2,96.2,42,96.6,42,97v0.1c0,0.3,0.1,0.6,0.4,0.8c0.2,0.2,0.6,0.4,1,0.6
			c0.4,0.2,0.9,0.4,1.4,0.6c0.5,0.2,1.1,0.4,1.7,0.6c0.7,0.2,1.5,0.5,2.3,0.9c0.8,0.3,1.5,0.7,2.1,1.2c0.6,0.5,1.1,1.1,1.5,1.8
			c0.4,0.7,0.6,1.5,0.6,2.5v0.1C52.8,107.3,52.6,108.3,52.2,109.2z"/>
		<path class="st9" d="M68.4,112.6l-5.6-8.8l-2.1,2.2v6.5h-6.1V83.4h6.1V99l7.1-7.8H75l-8.2,8.4l8.4,13H68.4z"/>
	</g>
	<g class="st5">
		<path class="st9" d="M104.7,101.7h2.8c0.3,0,0.5,0.1,0.6,0.3c0.2,0.2,0.3,0.4,0.3,0.6v4.8c0,0.2-0.1,0.4-0.3,0.6
			c-0.2,0.2-0.4,0.3-0.6,0.3h-2.8v2.7c0,0.2-0.1,0.4-0.3,0.6c-0.2,0.2-0.4,0.3-0.6,0.3h-6.4c-0.2,0-0.4-0.1-0.6-0.3
			c-0.2-0.2-0.3-0.4-0.3-0.6v-2.7H86.2c-0.2,0-0.4-0.1-0.6-0.3c-0.2-0.2-0.3-0.4-0.3-0.6v-4.7c0-0.4,0.1-0.7,0.4-1l9.7-11.7
			c0.3-0.4,0.7-0.5,1.2-0.5h7.3c0.2,0,0.4,0.1,0.6,0.3c0.2,0.2,0.3,0.4,0.3,0.6V101.7z M96.8,102.1v-4.5l-3.7,4.5H96.8z"/>
	</g>
</g>
</svg>
